<svg width="18" height="18" viewBox="0 0 18 18" fill="none" xmlns="http://www.w3.org/2000/svg">
  <defs>
    <linearGradient id="micBody" x1="9" y1="3" x2="9" y2="11.5" gradientUnits="userSpaceOnUse">
      <stop offset="0%" stop-color="#F9F5EE"/>
      <stop offset="100%" stop-color="#D8D1C5"/>
    </linearGradient>
    <linearGradient id="accentWave" x1="11" y1="4.5" x2="15.5" y2="11.5" gradientUnits="userSpaceOnUse">
      <stop offset="0%" stop-color="#FFB36B"/>
      <stop offset="100%" stop-color="#FF6E63"/>
    </linearGradient>
  </defs>

  <rect x="6.1" y="1.5" width="4.8" height="9" rx="2.4" fill="url(#micBody)"/>
  <rect x="7.25" y="2.1" width="1.55" height="7.75" rx="0.78" fill="#F2EEE7" opacity="0.92"/>
  <rect x="7.93" y="10.55" width="1.14" height="2.2" rx="0.57" fill="#D8D1C5"/>
  <rect x="6.5" y="13.15" width="4" height="1.1" rx="0.55" fill="#BFB4A6"/>

  <path d="M11.6 5.8C12.42 6.22 12.9 6.95 12.9 7.76C12.9 8.57 12.42 9.3 11.6 9.72" stroke="url(#accentWave)" stroke-width="1.05" stroke-linecap="round"/>
  <path d="M12.95 4.8C14.25 5.5 15.05 6.58 15.05 7.76C15.05 8.94 14.25 10.02 12.95 10.72" stroke="url(#accentWave)" stroke-width="1.05" stroke-linecap="round" opacity="0.92"/>

  <circle cx="12.25" cy="4.35" r="0.42" fill="#FFB36B"/>
</svg>
